<?xml version="1.0" encoding="UTF-8" standalone="no"?>
<svg
   id="svg"
   width="369.12219"
   height="90.227699"
   viewBox="0 0 369.12219 90.2277"
   version="1.1"
   xmlns="http://www.w3.org/2000/svg"
   xmlns:svg="http://www.w3.org/2000/svg">
  <defs
     id="defs1" />
  <g
     id="svgg"
     style="fill:#4c4c4c;fill-opacity:1"
     transform="translate(-19.137365,-4.5948987)">
    <path
       id="path0"
       d="m 166.976,4.792 c -6.615,1.468 -10.513,10.372 -12.207,27.885 -0.357,3.683 -0.369,20.089 -0.019,24.565 0.364,4.647 -2.235,12.861 -6.403,20.235 -4.78,8.459 -8.741,8.475 -10.426,0.043 -0.962,-4.814 -1.01,-6.192 -0.856,-24.924 0.026,-3.168 -0.947,-3.926 -5.037,-3.928 -3.045,-10e-4 -3.859,0.248 -4.431,1.354 -0.801,1.549 -1.751,8.758 -1.76,13.362 -0.017,8.022 -1.619,12.799 -5.675,16.919 -7.59,7.711 -10.589,1.845 -8.708,-17.035 1.08,-10.843 -0.446,-13.417 -8.731,-14.733 -7.649,-1.215 -7.807,-1.277 -10.602,-4.153 -2.994,-3.08 -4.657,-3.684 -7.678,-2.787 -2.56,0.76 -2.727,1.322 -2.759,9.274 -0.029,7.092 -0.266,9.006 -1.987,16.064 -4.249,17.428 -11.335,21.479 -16.179,9.249 -0.897,-2.264 -0.9,-2.185 0.227,-4.939 C 75.122,43.449 75.955,17.28 65.773,7.502 63.735,5.545 62.675,5.043 60.308,4.913 47.717,4.222 42.523,18.597 45.273,46.524 c 0.154,1.561 0.24,2.839 0.19,2.839 -0.049,0 -0.73,-0.168 -1.513,-0.373 -2.162,-0.566 -6.795,-0.339 -9.491,0.465 -20.326,6.06 -20.466,37.871 -0.195,44.264 7.842,2.473 15.751,0.383 21.441,-5.667 0.983,-1.045 1.825,-1.86 1.87,-1.812 0.045,0.048 0.725,0.956 1.511,2.019 5.258,7.111 10.782,8.165 17.573,3.352 6.136,-4.348 11.674,-16.45 14.905,-32.573 0.638,-3.181 0.192,-2.976 4.413,-2.027 3.307,0.743 4.348,1.363 4.387,2.61 0.008,0.285 0.046,3.647 0.084,7.471 0.157,15.885 2.529,23.346 8.325,26.186 5.71,2.799 11.245,0.916 17.68,-6.015 l 2.01,-2.164 1.243,2.004 c 7.679,12.389 20.691,8.932 27.651,-7.345 1.631,-3.815 1.445,-3.563 1.652,-2.238 1.448,9.28 9.075,16.499 17.7,16.751 10.455,0.306 17.829,-6.588 20.586,-19.244 l 0.503,-2.31 1.739,-0.506 c 1.982,-0.577 3.799,-1.449 5.362,-2.571 l 1.078,-0.774 0.518,2.241 c 2.424,10.493 7.65,18.957 13.435,21.761 6.714,3.254 15.599,1.164 20.858,-4.905 2.847,-3.286 6.025,-10.466 6.025,-13.613 0,-0.29 0.251,-0.533 0.715,-0.695 1.544,-0.538 4.803,-2.268 6.141,-3.259 l 1.409,-1.044 0.391,2.039 c 3.425,17.866 14.874,27.074 27.461,22.085 6.79,-2.691 12.66,-10.964 13.396,-18.878 l 0.148,-1.588 0.836,-0.127 c 1.778,-0.27 3.444,-0.633 4.869,-1.063 0.816,-0.246 1.495,-0.42 1.509,-0.387 0.014,0.034 0.386,1.155 0.827,2.491 2.634,7.977 7.257,14.763 12.201,17.908 6.855,4.361 13.417,3.83 21.704,-1.757 l 2.267,-1.528 1.628,1.054 c 12.229,7.91 29.258,5.527 39.493,-5.528 7.28,-7.862 8.163,-11.544 3.835,-15.978 -2.36,-2.419 -2.811,-2.255 -4.957,1.797 -7.132,13.472 -18.707,18.674 -30.127,13.539 l -1.121,-0.504 1.701,-1.057 c 18.446,-11.467 18.723,-36.418 0.404,-36.444 -8.425,-0.011 -15.324,5.415 -18.145,14.272 -2.043,6.413 -1.763,14.894 0.673,20.403 l 0.597,1.349 -0.618,0.469 c -8.621,6.536 -15.924,2.645 -20.487,-10.917 -1.184,-3.519 -1.227,-3.228 0.818,-5.593 8.545,-9.885 13.593,-24.634 13.939,-40.728 0.298,-13.872 -3.692,-20.067 -12.909,-20.039 -12.908,0.04 -19.538,24.826 -14.462,54.067 0.329,1.891 0.562,3.466 0.519,3.501 -0.353,0.291 -3.368,1.103 -4.481,1.207 l -1.39,0.13 -0.435,-1.082 C 292.49,55.819 282.939,49.22 279.879,51.907 c -3.744,3.287 -2.867,10.719 1.904,16.139 1.608,1.826 4.452,3.796 5.482,3.796 0.753,0 -0.46,4.438 -2.058,7.526 -4.369,8.446 -13.391,8.12 -17.642,-0.637 -1.868,-3.848 -2.584,-8.651 -2.167,-14.536 l 0.205,-2.897 1.615,-3.404 c 8.976,-18.926 13.016,-41.002 8.79,-48.031 -2.954,-4.912 -9.453,-6.369 -13.974,-3.132 -6.969,4.991 -10.55,23.42 -9.221,47.463 l 0.26,4.716 -0.672,0.849 c -1.311,1.655 -5.679,4.021 -5.926,3.21 -2.392,-7.824 -13.511,-15.013 -16.421,-10.617 -3.245,4.904 0.958,15.657 7.277,18.618 1.313,0.615 1.33,0.698 0.647,3.29 -2.692,10.212 -10.769,14.121 -16.772,8.118 -5.295,-5.295 -6.697,-17.265 -2.945,-25.136 7.966,-16.707 12.434,-38.239 9.54,-45.974 -2.604,-6.96 -11.02,-8.842 -16.214,-3.626 -6.279,6.307 -9.339,25.633 -7.729,48.822 l 0.147,2.119 -1.078,1.153 c -1.066,1.139 -2.948,2.305 -4.739,2.938 l -0.922,0.325 -0.151,-1.082 c -0.929,-6.635 -9.033,-12.737 -14.102,-10.619 -5.567,2.326 -1.781,16.411 5.321,19.798 0.901,0.43 0.899,0.563 -0.08,3.979 -3.381,11.796 -14.185,13.693 -19.205,3.372 -2.826,-5.809 -3.206,-15.245 -0.807,-20.033 8.662,-17.294 13.355,-40.859 9.608,-48.252 -1.993,-3.933 -6.755,-6.285 -10.874,-5.37 m 150.807,9.851 c 4.866,5.695 1,28.093 -6.986,40.47 -1.492,2.312 -1.529,2.289 -1.977,-1.233 -1.485,-11.669 -0.984,-25.768 1.158,-32.559 1.914,-6.069 5.617,-9.238 7.805,-6.678 M 60.924,15.662 c 4.473,5.687 3.592,28.263 -1.634,41.877 -1.32,3.44 -1.549,3.242 -3.288,-2.846 -3.653,-12.787 -3.63,-29.191 0.051,-36.415 1.462,-2.868 3.719,-4.08 4.871,-2.616 m 108.819,0.672 c 1.687,3.457 -1.984,23.211 -5.82,31.312 l -0.64,1.351 -0.177,-0.802 c -0.644,-2.912 -0.178,-17.299 0.748,-23.097 1.191,-7.461 4.281,-12.06 5.889,-8.764 m 49.318,-0.314 c 1.987,2.665 -1.632,22.989 -5.567,31.257 l -0.827,1.738 -0.208,-2.086 c -0.523,-5.256 0.104,-18.326 1.123,-23.406 1.265,-6.305 3.791,-9.765 5.479,-7.503 m 49.235,0.492 c 1.698,3.16 -1.888,22.773 -5.69,31.113 l -0.845,1.854 -0.156,-1.159 c -0.759,-5.636 0.069,-20.887 1.419,-26.13 1.36,-5.284 3.972,-8.096 5.272,-5.678 m -138.775,9.519 c -8.122,3.033 -6.171,14.641 2.46,14.641 9.896,0 10.235,-14.518 0.348,-14.882 -1.257,-0.046 -2.273,0.041 -2.808,0.241 m 222.877,28.771 c 4.029,1.197 4.424,6.87 0.852,12.257 -1.738,2.621 -8.643,8.955 -9.762,8.955 -0.313,0 -1.155,-2.282 -1.583,-4.287 -0.549,-2.576 -0.313,-7.385 0.471,-9.594 1.847,-5.202 6.278,-8.442 10.022,-7.331 M 44.602,58.248 c 2.275,1.046 2.783,1.55 3.24,3.209 0.878,3.185 2.795,8.759 3.886,11.299 l 1.151,2.679 -0.395,1.274 C 49.638,85.882 38.559,89.1 32.073,82.637 24.754,75.345 27.177,61.172 36.294,57.945 c 2.098,-0.742 6.376,-0.587 8.308,0.303"
       stroke="none"
       fill="#000000"
       fill-rule="evenodd"
       style="fill:#4c4c4c;fill-opacity:1" />
  </g>
</svg>
