<?xml version="1.0" encoding="UTF-8" standalone="no"?>
<svg
   version="1.1"
   width="776.7981"
   height="741.41943"
   style="clip-rule:evenodd;fill-rule:evenodd;image-rendering:optimizeQuality;shape-rendering:geometricPrecision;text-rendering:geometricPrecision"
   id="svg142"
   sodipodi:docname="herosvg.svg"
   inkscape:version="1.4 (e7c3feb100, 2024-10-09)"
   xmlns:inkscape="http://www.inkscape.org/namespaces/inkscape"
   xmlns:sodipodi="http://sodipodi.sourceforge.net/DTD/sodipodi-0.dtd"
   xmlns="http://www.w3.org/2000/svg"
   xmlns:svg="http://www.w3.org/2000/svg">
  <sodipodi:namedview
     id="namedview1"
     pagecolor="#ffffff"
     bordercolor="#000000"
     borderopacity="0.25"
     inkscape:showpageshadow="2"
     inkscape:pageopacity="0.0"
     inkscape:pagecheckerboard="0"
     inkscape:deskcolor="#d1d1d1"
     inkscape:zoom="0.99544487"
     inkscape:cx="392.78921"
     inkscape:cy="370.18625"
     inkscape:window-width="1920"
     inkscape:window-height="1008"
     inkscape:window-x="0"
     inkscape:window-y="0"
     inkscape:window-maximized="1"
     inkscape:current-layer="g143" />
  <defs
     id="defs142" />
  <g
     id="g143"
     transform="translate(64.478807,61.564947)">
    <g
       id="g1"
       transform="matrix(1.1494875,0,0,1.1494875,-63.904066,-60.9902)">
      <path
         style="opacity:1"
         fill="#fefefe"
         d="m -0.5,-0.5 v 645 z"
         id="path1" />
    </g>
    <g
       id="g17"
       transform="matrix(1.0414905,0,0,1.0414905,-64.918372,-30.519523)"
       inkscape:export-filename="herosvg.svg"
       inkscape:export-xdpi="200"
       inkscape:export-ydpi="200">
      <g
         id="g2"
         transform="matrix(1.1494875,0,0,1.1494875,-63.904066,-60.9902)">
        <path
           style="opacity:1"
           fill="#6e6e6e"
           d="m 543.5,95.5 c -4.703,-0.0628 -9.37,0.2705 -14,1 2.517,-1.473 5.35,-2.1397 8.5,-2 2.033,0.0056 3.866,0.3389 5.5,1 z"
           id="path2" />
      </g>
      <g
         id="g3"
         transform="matrix(1.1494875,0,0,1.1494875,-63.904066,-60.9902)">
        <path
           style="opacity:1"
           fill="#212121"
           d="m 543.5,95.5 c 21.288,2.7899 32.954,14.957 35,36.5 -1.849,24.516 -15.016,37.682 -39.5,39.5 -26.666,-3.677 -39,-19.01 -37,-46 3.549,-15.048 12.716,-24.715 27.5,-29 4.63,-0.7295 9.297,-1.0628 14,-1 z"
           id="path3" />
      </g>
      <g
         id="g4"
         transform="matrix(1.1494875,0,0,1.1494875,-63.904066,-60.9902)">
        <path
           style="opacity:1"
           fill="#b8fd67"
           d="m 631.5,108.5 c 21.118,-2.198 35.618,6.469 43.5,26 2.51,31.489 -11.99,46.655 -43.5,45.5 -20.653,-7.122 -29.819,-21.622 -27.5,-43.5 4.042,-14.541 13.209,-23.875 27.5,-28 z"
           id="path4" />
      </g>
      <g
         id="g5"
         transform="matrix(1.1494875,0,0,1.1494875,-63.904066,-60.9902)">
        <path
           style="opacity:1"
           fill="#fbfbfb"
           d="m 544.5,118.5 c 14.349,0.678 18.515,7.678 12.5,21 -4.373,5.706 -9.373,10.706 -15,15 -7.166,-3.494 -13.5,-8.161 -19,-14 -4.294,-7.693 -3.127,-14.193 3.5,-19.5 4.45,-1.114 8.45,-0.28 12,2.5 2.044,-1.719 4.044,-3.386 6,-5 z"
           id="path5" />
      </g>
      <g
         id="g6"
         transform="matrix(1.1494875,0,0,1.1494875,-63.904066,-60.9902)">
        <path
           style="opacity:1"
           fill="#212121"
           d="m 136.5,124.5 c 21.06,-0.772 31.227,9.228 30.5,30 -6.526,17.508 -18.693,23.008 -36.5,16.5 -12.268,-9.488 -15.101,-21.322 -8.5,-35.5 3.951,-5.034 8.784,-8.701 14.5,-11 z"
           id="path6" />
      </g>
      <g
         id="g7"
         transform="matrix(1.1494875,0,0,1.1494875,-63.904066,-60.9902)">
        <path
           style="opacity:1"
           fill="#262822"
           d="m 646.5,128.5 c 7.643,-0.357 10.143,2.976 7.5,10 -3.13,2.622 -6.297,2.622 -9.5,0 -4.279,1.473 -8.279,3.473 -12,6 3.019,2.515 6.519,4.182 10.5,5 5.799,-3.61 9.966,-2.277 12.5,4 -0.98,5.165 -3.98,7.332 -9,6.5 -2.128,-1.667 -3.461,-3.834 -4,-6.5 -3.563,-1.615 -7.23,-2.948 -11,-4 -6.213,3.829 -9.879,2.162 -11,-5 -0.11,-1.874 0.556,-3.374 2,-4.5 7.218,1.324 13.885,-0.176 20,-4.5 0.605,-2.797 1.938,-5.13 4,-7 z"
           id="path7" />
      </g>
      <g
         id="g8"
         transform="matrix(1.1494875,0,0,1.1494875,-63.904066,-60.9902)">
        <path
           style="opacity:1"
           fill="#bafe68"
           d="m 208.5,201.5 c -9.082,8.278 -17.915,7.945 -26.5,-1 -0.757,-1.815 -1.59,-3.481 -2.5,-5 0,-0.333 0,-0.667 0,-1 -0.345,-14.488 6.655,-20.655 21,-18.5 9.416,3.663 12.916,10.496 10.5,20.5 -0.847,1.693 -1.68,3.36 -2.5,5 z"
           id="path8" />
      </g>
      <g
         id="g9"
         transform="matrix(1.1494875,0,0,1.1494875,-63.904066,-60.9902)">
        <path
           style="opacity:1"
           fill="#585858"
           d="m 179.5,194.5 c 0,0.333 0,0.667 0,1 -0.597,0.639 -1.43,0.972 -2.5,1 -9.102,-1.478 -18.269,-2.311 -27.5,-2.5 10.01,-0.5 20.01,-0.333 30,0.5 z"
           id="path9" />
      </g>
      <g
         id="g10"
         transform="matrix(1.1494875,0,0,1.1494875,-63.904066,-60.9902)">
        <path
           style="opacity:1"
           fill="#696969"
           d="m 137.5,197.5 c 2.886,-2.346 6.22,-3.18 10,-2.5 -3.324,0.943 -6.657,1.776 -10,2.5 z"
           id="path10" />
      </g>
      <g
         id="g11"
         transform="matrix(1.1494875,0,0,1.1494875,-63.904066,-60.9902)">
        <path
           style="opacity:1"
           fill="#808080"
           d="m 208.5,201.5 c 3.416,0.028 6.416,1.028 9,3 -3.659,0.351 -6.659,-0.649 -9,-3 z"
           id="path11" />
      </g>
      <g
         id="g12"
         transform="matrix(1.1494875,0,0,1.1494875,-63.904066,-60.9902)">
        <path
           style="opacity:1"
           fill="#6d6d6d"
           d="m 217.5,204.5 c 17.531,4.288 34.531,9.955 51,17 -17.158,-5.497 -34.158,-11.164 -51,-17 z"
           id="path12" />
      </g>
      <g
         id="g13"
         transform="matrix(1.1494875,0,0,1.1494875,-63.904066,-60.9902)">
        <path
           style="opacity:1"
           fill="#636363"
           d="m 137.5,197.5 c -3.358,2.2 -5.858,5.2 -7.5,9 -0.636,5.44 -0.136,10.773 1.5,16 -1.293,-1.342 -2.126,-3.009 -2.5,-5 -1.745,-7.064 -0.245,-13.231 4.5,-18.5 1.245,-0.791 2.578,-1.291 4,-1.5 z"
           id="path13" />
      </g>
      <g
         id="g14"
         transform="matrix(1.1494875,0,0,1.1494875,-63.904066,-60.9902)">
        <path
           style="opacity:1"
           fill="#212121"
           d="m 624.5,216.5 c 28.497,0.993 41.663,15.66 39.5,44 -6.957,20.274 -21.123,29.108 -42.5,26.5 -19.312,-5.996 -28.479,-19.163 -27.5,-39.5 3.681,-16.847 13.847,-27.18 30.5,-31 z"
           id="path14" />
      </g>
      <g
         id="g15"
         transform="matrix(1.1494875,0,0,1.1494875,-63.904066,-60.9902)">
        <path
           style="opacity:1"
           fill="#6e6e6e"
           d="m 268.5,221.5 c 17.628,5.653 34.628,12.653 51,21 -17.306,-6.431 -34.306,-13.431 -51,-21 z"
           id="path15" />
      </g>
      <g
         id="g16"
         transform="matrix(1.1494875,0,0,1.1494875,-63.904066,-60.9902)">
        <path
           style="opacity:1"
           fill="#656565"
           d="m 131.5,222.5 c 2.137,2.993 4.137,6.16 6,9.5 14.107,0.3 27.774,2.467 41,6.5 -11.61,-1.944 -23.277,-3.611 -35,-5 -1.667,0.167 -3.333,0.333 -5,0.5 1.732,1.972 3.065,4.139 4,6.5 -2.124,-1.559 -3.791,-3.559 -5,-6 -2,-0.333 -4,-0.667 -6,-1 -5.465,0.367 -10.798,1.367 -16,3 1.885,-1.811 4.219,-2.978 7,-3.5 4.371,-0.172 8.704,-0.672 13,-1.5 -2.158,-2.648 -3.492,-5.648 -4,-9 z"
           id="path16" />
      </g>
      <g
         id="g19"
         transform="matrix(1.1494875,0,0,1.1494875,-63.904066,-60.9902)">
        <path
           style="opacity:1"
           fill="#717171"
           d="m 115.5,236.5 c -1.079,2.043 -2.746,3.376 -5,4 1.039,-2.031 2.705,-3.364 5,-4 z"
           id="path19" />
      </g>
      <g
         id="g20"
         transform="matrix(1.1494875,0,0,1.1494875,-63.904066,-60.9902)">
        <path
           style="opacity:1"
           fill="#6a6a6a"
           d="m 178.5,238.5 c 27.593,6.087 54.26,14.754 80,26 -26.428,-9.699 -53.095,-18.366 -80,-26 z"
           id="path20" />
      </g>
      <g
         id="g21"
         transform="matrix(1.1494875,0,0,1.1494875,-63.904066,-60.9902)">
        <path
           style="opacity:1"
           fill="#f9f9f9"
           d="m 616.5,238.5 c 10.259,2.982 20.592,5.815 31,8.5 1.016,0.519 1.682,1.353 2,2.5 -7.848,7.34 -16.181,14.174 -25,20.5 -1.293,0.49 -2.627,0.657 -4,0.5 -1.2,-9.734 -2.867,-19.401 -5,-29 0.185,-1.084 0.518,-2.084 1,-3 z"
           id="path21" />
      </g>
      <g
         id="g22"
         transform="matrix(1.1494875,0,0,1.1494875,-63.904066,-60.9902)">
        <path
           style="opacity:1"
           fill="#6e6e6e"
           d="m 142.5,240.5 c 3.703,3.702 7.037,7.702 10,12 -4.457,-3.119 -7.791,-7.119 -10,-12 z"
           id="path22" />
      </g>
      <g
         id="g23"
         transform="matrix(1.1494875,0,0,1.1494875,-63.904066,-60.9902)">
        <path
           style="opacity:1"
           fill="#b7fd65"
           d="m 353.5,363.5 c -8.288,3.154 -16.622,6.154 -25,9 -8.907,3.081 -17.907,5.748 -27,8 -3.687,-0.676 -7.02,-2.176 -10,-4.5 -21.212,-19.583 -31.545,-43.749 -31,-72.5 1.766,-2.271 3.766,-4.437 6,-6.5 23.667,-16.833 47.333,-33.667 71,-50.5 -1.633,38.578 12.034,70.744 41,96.5 4,2.333 8,4.667 12,7 -12.558,4.238 -24.891,8.738 -37,13.5 z"
           id="path23" />
      </g>
      <g
         id="g24"
         transform="matrix(1.1494875,0,0,1.1494875,-63.904066,-60.9902)">
        <path
           style="opacity:1"
           fill="#7f7f7f"
           d="m 110.5,240.5 c -1.764,5.144 -2.431,10.477 -2,16 -2.471,-4.087 -2.637,-8.42 -0.5,-13 0.377,-1.442 1.21,-2.442 2.5,-3 z"
           id="path24" />
      </g>
      <g
         id="g25"
         transform="matrix(1.1494875,0,0,1.1494875,-63.904066,-60.9902)">
        <path
           style="opacity:1"
           fill="#717171"
           d="m 152.5,252.5 c 10.678,10.678 21.678,21.011 33,31 12.588,4.302 24.921,8.969 37,14 -10.301,-2.899 -20.467,-6.232 -30.5,-10 -0.765,0.07 -1.265,0.403 -1.5,1 -2.946,-2.157 -6.279,-3.657 -10,-4.5 -18.293,-5.66 -36.96,-9.493 -56,-11.5 -2.333,0.167 -4.667,0.333 -7,0.5 0.752,0.671 1.086,1.504 1,2.5 -1.127,-0.622 -2.127,-1.455 -3,-2.5 -4.655,-0.499 -9.321,-0.666 -14,-0.5 3.755,-1.435 7.755,-2.435 12,-3 -2.519,-4.033 -4.186,-8.366 -5,-13 2.036,4.399 4.369,8.733 7,13 10.662,1.5 21.329,3 32,4.5 11.336,3.002 22.67,5.669 34,8 -10.56,-9.059 -20.226,-18.892 -29,-29.5 z"
           id="path25" />
      </g>
      <g
         id="g26"
         transform="matrix(1.1494875,0,0,1.1494875,-63.904066,-60.9902)">
        <path
           style="opacity:1"
           fill="#6f6f6f"
           d="m 258.5,264.5 c 3.797,0.372 7.13,1.706 10,4 -3.797,-0.372 -7.13,-1.706 -10,-4 z"
           id="path26" />
      </g>
      <g
         id="g27"
         transform="matrix(1.1494875,0,0,1.1494875,-63.904066,-60.9902)">
        <path
           style="opacity:1"
           fill="#6a6a6a"
           d="m 268.5,268.5 c 4.389,0.903 8.389,2.569 12,5 -4.389,-0.903 -8.389,-2.569 -12,-5 z"
           id="path27" />
      </g>
      <g
         id="g30"
         transform="matrix(1.1494875,0,0,1.1494875,-63.904066,-60.9902)">
        <path
           style="opacity:1"
           fill="#707070"
           d="m 118.5,275.5 c 10.568,12.907 21.902,25.241 34,37 -13.459,-10.455 -24.792,-22.789 -34,-37 z"
           id="path30" />
      </g>
      <g
         id="g31"
         transform="matrix(1.1494875,0,0,1.1494875,-63.904066,-60.9902)">
        <path
           style="opacity:1"
           fill="#6f6f6f"
           d="m 190.5,288.5 c 4.227,2.285 7.893,5.285 11,9 -4.227,-2.285 -7.893,-5.285 -11,-9 z"
           id="path31" />
      </g>
      <g
         id="g33"
         transform="matrix(1.1494875,0,0,1.1494875,-63.904066,-60.9902)">
        <path
           style="opacity:1"
           fill="#6e6e6e"
           d="m 201.5,297.5 c 5.246,2.911 9.913,6.578 14,11 -5.246,-2.911 -9.913,-6.578 -14,-11 z"
           id="path33" />
      </g>
      <g
         id="g34"
         transform="matrix(1.1494875,0,0,1.1494875,-63.904066,-60.9902)">
        <path
           style="opacity:1"
           fill="#202020"
           d="m 258.5,302.5 c 0.992,-0.172 1.658,0.162 2,1 -0.545,28.751 9.788,52.917 31,72.5 2.98,2.324 6.313,3.824 10,4.5 1.333,0.667 2.667,1.333 4,2 -12.738,1.79 -25.405,3.79 -38,6 -4.532,-0.318 -8.866,0.015 -13,1 -0.992,0.172 -1.658,-0.162 -2,-1 0.898,-0.658 1.898,-1.324 3,-2 -0.124,-0.607 -0.457,-0.94 -1,-1 -14.641,-12.538 -22.641,-28.538 -24,-48 -0.333,-0.667 -0.667,-1.333 -1,-2 1.573,-4.146 3.907,-7.813 7,-11 0.992,0.172 1.658,-0.162 2,-1 4,-4.333 8,-8.667 12,-13 1.333,-0.667 2.333,-1.667 3,-3 1.333,-2 3,-3.667 5,-5 z"
           id="path34" />
      </g>
      <g
         id="g36"
         transform="matrix(1.1494875,0,0,1.1494875,-63.904066,-60.9902)">
        <path
           style="opacity:1"
           fill="#6e6e6e"
           d="m 215.5,308.5 c 3.033,1.516 5.7,3.516 8,6 -3.391,-1.029 -6.057,-3.029 -8,-6 z"
           id="path36" />
      </g>
      <g
         id="g37"
         transform="matrix(1.1494875,0,0,1.1494875,-63.904066,-60.9902)">
        <path
           style="opacity:1"
           fill="#6e6e6e"
           d="m 101.5,272.5 c -13.5235,4.049 -17.6901,12.716 -12.5,26 2.6894,5.492 5.5227,10.826 8.5,16 -6.6749,-7.355 -10.6749,-16.021 -12,-26 0.99,-9.657 6.3233,-14.99 16,-16 z"
           id="path37" />
      </g>
      <g
         id="g38"
         transform="matrix(1.1494875,0,0,1.1494875,-63.904066,-60.9902)">
        <path
           style="opacity:1"
           fill="#6c6c6c"
           d="m 152.5,312.5 c 3.6,1.93 6.6,4.597 9,8 -3.6,-1.93 -6.6,-4.597 -9,-8 z"
           id="path38" />
      </g>
      <g
         id="g39"
         transform="matrix(1.1494875,0,0,1.1494875,-63.904066,-60.9902)">
        <path
           style="opacity:1"
           fill="#686868"
           d="m 223.5,314.5 c 1.904,0.238 3.238,1.238 4,3 -1.904,-0.238 -3.238,-1.238 -4,-3 z"
           id="path39" />
      </g>
      <g
         id="g40"
         transform="matrix(1.1494875,0,0,1.1494875,-63.904066,-60.9902)">
        <path
           style="opacity:1"
           fill="#6b6b6b"
           d="m 227.5,317.5 c 3.667,2 7.333,4 11,6 -0.342,0.838 -1.008,1.172 -2,1 -3.31,-1.982 -6.31,-4.315 -9,-7 z"
           id="path40" />
      </g>
      <g
         id="g41"
         transform="matrix(1.1494875,0,0,1.1494875,-63.904066,-60.9902)">
        <path
           style="opacity:1"
           fill="#6d6d6d"
           d="m 161.5,320.5 c 2.927,1.257 5.261,3.257 7,6 -2.927,-1.257 -5.261,-3.257 -7,-6 z"
           id="path41" />
      </g>
      <g
         id="g42"
         transform="matrix(1.1494875,0,0,1.1494875,-63.904066,-60.9902)">
        <path
           style="opacity:1"
           fill="#6c6c6c"
           d="m 168.5,326.5 c 2.589,0.919 4.589,2.586 6,5 -2.589,-0.919 -4.589,-2.586 -6,-5 z"
           id="path42" />
      </g>
      <g
         id="g43"
         transform="matrix(1.1494875,0,0,1.1494875,-63.904066,-60.9902)">
        <path
           style="opacity:1"
           fill="#6e6e6e"
           d="m 97.5,314.5 c 10.285,12.62 21.285,24.62 33,36 -13.127,-10.123 -24.127,-22.123 -33,-36 z"
           id="path43" />
      </g>
      <g
         id="g44"
         transform="matrix(1.1494875,0,0,1.1494875,-63.904066,-60.9902)">
        <path
           style="opacity:1"
           fill="#6e6e6e"
           d="m 174.5,331.5 c 6.626,4.626 12.96,9.626 19,15 -7.201,-3.864 -13.534,-8.864 -19,-15 z"
           id="path44" />
      </g>
      <g
         id="g45"
         transform="matrix(1.1494875,0,0,1.1494875,-63.904066,-60.9902)">
        <path
           style="opacity:1"
           fill="#f6f6f6"
           d="m 230.5,337.5 c 1.359,19.462 9.359,35.462 24,48 -11.116,2.832 -19.95,-0.501 -26.5,-10 -4.889,-7.324 -6.889,-15.324 -6,-24 2.608,-4.897 5.441,-9.563 8.5,-14 z"
           id="path45" />
      </g>
      <g
         id="g46"
         transform="matrix(1.1494875,0,0,1.1494875,-63.904066,-60.9902)">
        <path
           style="opacity:1"
           fill="#3f4438"
           d="m 604.5,319.5 c 24.854,-1.01 40.687,10.323 47.5,34 2.185,24.805 -8.649,40.638 -32.5,47.5 -25.273,2.723 -41.44,-8.11 -48.5,-32.5 -1.63,-25.186 9.537,-41.52 33.5,-49 z"
           id="path46" />
      </g>
      <g
         id="g47"
         transform="matrix(1.1494875,0,0,1.1494875,-63.904066,-60.9902)">
        <path
           style="opacity:1"
           fill="#b5fa64"
           d="m 604.5,321.5 c 31.698,-0.137 46.865,15.529 45.5,47 -7.158,23.465 -22.991,33.632 -47.5,30.5 -22.381,-7.407 -32.215,-22.907 -29.5,-46.5 5.112,-15.946 15.612,-26.28 31.5,-31 z"
           id="path47" />
      </g>
      <g
         id="g48"
         transform="matrix(1.1494875,0,0,1.1494875,-63.904066,-60.9902)">
        <path
           style="opacity:1"
           fill="#222320"
           d="m 608.5,332.5 c 10.665,-0.258 18.165,4.408 22.5,14 0.869,2.081 1.369,4.247 1.5,6.5 -4.505,15.179 -12.005,28.679 -22.5,40.5 -9.299,-12.097 -15.466,-25.597 -18.5,-40.5 0.417,-11.246 6.084,-18.079 17,-20.5 z"
           id="path48" />
      </g>
      <g
         id="g49"
         transform="matrix(1.1494875,0,0,1.1494875,-63.904066,-60.9902)">
        <path
           style="opacity:1"
           fill="#b4f964"
           d="m 607.5,344.5 c 10.159,-1.342 14.326,2.991 12.5,13 -1.8,3.735 -4.8,5.402 -9,5 -7.412,-1.126 -10.079,-5.459 -8,-13 1.025,-2.187 2.525,-3.854 4.5,-5 z"
           id="path49" />
      </g>
      <g
         id="g50"
         transform="matrix(1.1494875,0,0,1.1494875,-63.904066,-60.9902)">
        <path
           style="opacity:1"
           fill="#6d6d6d"
           d="m 193.5,346.5 c 5.7,3.516 11.033,7.516 16,12 -6.057,-3.029 -11.391,-7.029 -16,-12 z"
           id="path50" />
      </g>
      <g
         id="g53"
         transform="matrix(1.1494875,0,0,1.1494875,-63.904066,-60.9902)">
        <path
           style="opacity:1"
           fill="#707070"
           d="m 130.5,350.5 c 15.342,12.669 30.676,25.336 46,38 -16.448,-11.237 -31.781,-23.903 -46,-38 z"
           id="path53" />
      </g>
      <g
         id="g54"
         transform="matrix(1.1494875,0,0,1.1494875,-63.904066,-60.9902)">
        <path
           style="opacity:1"
           fill="#212121"
           d="m 353.5,363.5 c 0.992,-0.172 1.658,0.162 2,1 -1.086,0.12 -1.753,0.787 -2,2 0.5,2 1,4 1.5,6 3.725,11.285 7.891,22.285 12.5,33 -1.333,0.667 -1.333,1.333 0,2 6.472,19.416 13.139,38.75 20,58 0,0.333 0,0.667 0,1 1.56,5.187 1.06,10.187 -1.5,15 -8.792,7.468 -16.459,6.468 -23,-3 -3.612,-9.561 -6.946,-19.228 -10,-29 -0.698,-1.191 -1.531,-2.191 -2.5,-3 1.333,-1 1.333,-2 0,-3 -6.088,-19.599 -12.754,-38.932 -20,-58 0.237,-1.291 -0.096,-2.291 -1,-3 0.106,-2.579 -0.561,-4.912 -2,-7 0.057,-1.109 0.39,-2.109 1,-3 8.378,-2.846 16.712,-5.846 25,-9 z"
           id="path54" />
      </g>
      <g
         id="g55"
         transform="matrix(1.1494875,0,0,1.1494875,-63.904066,-60.9902)">
        <path
           style="opacity:1"
           fill="#40403f"
           d="m 554.5,377.5 c -7.115,-4.398 -14.115,-9.065 -21,-14 -5.495,4.499 -11.828,6.833 -19,7 -21.063,-3.279 -42.063,-6.946 -63,-11 -0.916,0.043 -1.583,0.376 -2,1 -17.641,-4.117 -35.475,-7.451 -53.5,-10 -10.59,3.364 -21.09,7.03 -31.5,11 1.919,1.112 3.586,2.446 5,4 -2.63,-0.928 -5.296,-1.928 -8,-3 -2.016,0.678 -4.016,1.344 -6,2 -0.342,-0.838 -1.008,-1.172 -2,-1 12.109,-4.762 24.442,-9.262 37,-13.5 -4,-2.333 -8,-4.667 -12,-7 -28.966,-25.756 -42.633,-57.922 -41,-96.5 -23.667,16.833 -47.333,33.667 -71,50.5 -2.234,2.063 -4.234,4.229 -6,6.5 -0.342,-0.838 -1.008,-1.172 -2,-1 1.46,-1.963 3.127,-3.796 5,-5.5 8.947,-5.947 17.614,-12.28 26,-19 -3.323,-1.04 -6.323,-2.54 -9,-4.5 3.676,0.837 7.176,2.17 10.5,4 13.471,-9.312 26.638,-18.979 39.5,-29 -3.88,-1.77 -7.546,-3.77 -11,-6 4.367,1.341 8.7,3.008 13,5 2.636,-1.471 5.136,-3.137 7.5,-5 17.301,-35.938 34.635,-71.938 52,-108 7.773,-10.958 18.273,-14.791 31.5,-11.5 14.704,4.849 27.704,12.516 39,23 44.571,44.97 72.404,98.803 83.5,161.5 0.895,12.749 0.228,25.416 -2,38 -2.188,5.876 -5.021,11.376 -8.5,16.5 6.307,5.159 12.64,10.326 19,15.5 z"
           id="path55" />
      </g>
      <g
         id="g56"
         transform="matrix(1.1494875,0,0,1.1494875,-63.904066,-60.9902)">
        <path
           style="opacity:1"
           fill="#686868"
           d="m 449.5,360.5 c 3.204,0.883 5.871,2.55 8,5 -3.204,-0.883 -5.871,-2.55 -8,-5 z"
           id="path56" />
      </g>
      <g
         id="g57"
         transform="matrix(1.1494875,0,0,1.1494875,-63.904066,-60.9902)">
        <path
           style="opacity:1"
           fill="#fdfdfd"
           d="m 383.5,155.5 c 0.009,32.538 6.509,63.872 19.5,94 14.337,33.371 33.67,63.371 58,90 10.092,10.429 21.592,18.929 34.5,25.5 -36.465,-5.356 -72.799,-11.689 -109,-19 -17.578,-11.919 -30.411,-27.752 -38.5,-47.5 -6.984,-14.905 -9.984,-30.571 -9,-47 0.714,-3.095 1.714,-6.095 3,-9 13.935,-28.982 27.768,-57.982 41.5,-87 z"
           id="path57" />
      </g>
      <g
         id="g58"
         transform="matrix(1.1494875,0,0,1.1494875,-63.904066,-60.9902)">
        <path
           style="opacity:1"
           fill="#fcfcfc"
           d="m 406.5,124.5 c 12.987,-1.394 24.987,1.439 36,8.5 28.957,21.286 51.79,47.786 68.5,79.5 16.67,30.321 27.67,62.654 33,97 0.905,12.087 0.238,24.087 -2,36 -5.491,18.49 -17.658,25.657 -36.5,21.5 -12.585,-4.623 -23.919,-11.289 -34,-20 -45.091,-44.339 -73.258,-97.839 -84.5,-160.5 -0.92,-12.724 -0.586,-25.39 1,-38 2.595,-10.903 8.762,-18.903 18.5,-24 z"
           id="path58" />
      </g>
      <g
         id="g59"
         transform="matrix(1.1494875,0,0,1.1494875,-63.904066,-60.9902)">
        <path
           style="opacity:1"
           fill="#414141"
           d="m 441.5,302.5 c -0.172,-0.992 0.162,-1.658 1,-2 12.53,20.363 29.197,36.529 50,48.5 10.053,4.579 20.053,4.579 30,0 5.177,-5.185 8.677,-11.352 10.5,-18.5 2.774,-18.967 1.441,-37.634 -4,-56 -9.203,-31.071 -23.203,-59.738 -42,-86 -0.688,-0.832 -0.521,-1.498 0.5,-2 23.684,31.71 39.517,67.044 47.5,106 2.652,15.941 1.652,31.608 -3,47 -6.469,12.484 -16.636,17.317 -30.5,14.5 -14.778,-4.889 -27.444,-13.056 -38,-24.5 -5.323,-5.491 -10.489,-11.158 -15.5,-17 -2.81,-2.964 -4.976,-6.298 -6.5,-10 z"
           id="path59" />
      </g>
      <g
         id="g60"
         transform="matrix(1.1494875,0,0,1.1494875,-63.904066,-60.9902)">
        <path
           style="opacity:1"
           fill="#212121"
           d="m 435.5,225.5 c 0.438,-0.065 0.772,0.101 1,0.5 -3.805,4.091 -4.972,8.924 -3.5,14.5 2.956,16.762 11.123,30.262 24.5,40.5 2.646,0.497 5.313,0.664 8,0.5 -7.307,6.628 -14.973,12.961 -23,19 -0.838,0.342 -1.172,1.008 -1,2 -15.015,-19.687 -26.682,-41.353 -35,-65 0,-1 0,-2 0,-3 1.599,0.268 2.932,-0.066 4,-1 8.16,-2.897 16.494,-5.564 25,-8 z"
           id="path60" />
      </g>
      <g
         id="g61"
         transform="matrix(1.1494875,0,0,1.1494875,-63.904066,-60.9902)">
        <path
           style="opacity:1"
           fill="#b8fd67"
           d="m 435.5,225.5 c 1.788,-1.122 3.788,-1.289 6,-0.5 7.783,4.116 13.95,9.95 18.5,17.5 7.239,10.624 10.239,22.291 9,35 -0.66,1.824 -1.827,3.157 -3.5,4 -2.687,0.164 -5.354,-0.003 -8,-0.5 -13.377,-10.238 -21.544,-23.738 -24.5,-40.5 -1.472,-5.576 -0.305,-10.409 3.5,-14.5 -0.228,-0.399 -0.562,-0.565 -1,-0.5 z"
           id="path61" />
      </g>
      <g
         id="g62"
         transform="matrix(1.1494875,0,0,1.1494875,-63.904066,-60.9902)">
        <path
           style="opacity:1"
           fill="#424242"
           d="m 410.5,233.5 c -1.068,0.934 -2.401,1.268 -4,1 0,1 0,2 0,3 -7.499,-19.202 -11.499,-39.202 -12,-60 -0.895,-11.703 1.938,-22.37 8.5,-32 6.681,-7.252 14.847,-9.752 24.5,-7.5 15.767,4.715 29.1,13.215 40,25.5 -0.502,1.021 -1.168,1.188 -2,0.5 -10.218,-11.275 -22.551,-19.275 -37,-24 -18.247,-2.11 -28.747,6.056 -31.5,24.5 -1.824,23.716 1.342,46.716 9.5,69 1.333,0 2.667,0 4,0 z"
           id="path62" />
      </g>
      <g
         id="g63"
         transform="matrix(1.1494875,0,0,1.1494875,-63.904066,-60.9902)">
        <path
           style="opacity:1"
           fill="#6f6f6f"
           d="m 369.5,365.5 c 9.491,4.243 18.491,9.243 27,15 -9.491,-4.243 -18.491,-9.243 -27,-15 z"
           id="path63" />
      </g>
      <g
         id="g64"
         transform="matrix(1.1494875,0,0,1.1494875,-63.904066,-60.9902)">
        <path
           style="opacity:1"
           fill="#6d6d6d"
           d="m 457.5,365.5 c 10.684,5.337 20.684,11.67 30,19 -10.346,-5.837 -20.346,-12.17 -30,-19 z"
           id="path64" />
      </g>
      <g
         id="g65"
         transform="matrix(1.1494875,0,0,1.1494875,-63.904066,-60.9902)">
        <path
           style="opacity:1"
           fill="#494f41"
           d="m 328.5,372.5 c -0.61,0.891 -0.943,1.891 -1,3 -2.559,-0.11 -4.892,0.556 -7,2 2.779,2.124 5.779,3.791 9,5 0.904,0.709 1.237,1.709 1,3 -4.297,-2.732 -8.797,-5.065 -13.5,-7 -4.006,0.924 -7.839,2.257 -11.5,4 -1.333,-0.667 -2.667,-1.333 -4,-2 9.093,-2.252 18.093,-4.919 27,-8 z"
           id="path65" />
      </g>
      <g
         id="g68"
         transform="matrix(1.1494875,0,0,1.1494875,-63.904066,-60.9902)">
        <path
           style="opacity:1"
           fill="#676767"
           d="m 554.5,377.5 c 1.904,0.238 3.238,1.238 4,3 -1.904,-0.238 -3.238,-1.238 -4,-3 z"
           id="path68" />
      </g>
      <g
         id="g69"
         transform="matrix(1.1494875,0,0,1.1494875,-63.904066,-60.9902)">
        <path
           style="opacity:1"
           fill="#717171"
           d="m 558.5,380.5 c 3.391,1.029 6.057,3.029 8,6 -3.391,-1.029 -6.057,-3.029 -8,-6 z"
           id="path69" />
      </g>
      <g
         id="g70"
         transform="matrix(1.1494875,0,0,1.1494875,-63.904066,-60.9902)">
        <path
           style="opacity:1"
           fill="#414141"
           d="m 229.5,335.5 c 0.333,0.667 0.667,1.333 1,2 -3.059,4.437 -5.892,9.103 -8.5,14 -0.889,8.676 1.111,16.676 6,24 6.55,9.499 15.384,12.832 26.5,10 0.543,0.06 0.876,0.393 1,1 -1.102,0.676 -2.102,1.342 -3,2 -4.968,-0.664 -9.968,-1.164 -15,-1.5 -6.66,-4.326 -11.493,-10.159 -14.5,-17.5 -4.846,-3.327 -9.346,-6.993 -13.5,-11 3.872,1.693 7.372,4.026 10.5,7 -0.476,-4.617 -0.476,-9.283 0,-14 2.941,-5.562 6.108,-10.895 9.5,-16 z"
           id="path70" />
      </g>
      <g
         id="g71"
         transform="matrix(1.1494875,0,0,1.1494875,-63.904066,-60.9902)">
        <path
           style="opacity:1"
           fill="#6d6d6d"
           d="m 396.5,380.5 c 8.664,3.661 16.664,8.327 24,14 -8.336,-4.165 -16.336,-8.832 -24,-14 z"
           id="path71" />
      </g>
      <g
         id="g72"
         transform="matrix(1.1494875,0,0,1.1494875,-63.904066,-60.9902)">
        <path
           style="opacity:1"
           fill="#646464"
           d="m 487.5,384.5 c 1.527,-0.073 2.527,0.594 3,2 -1.527,0.073 -2.527,-0.594 -3,-2 z"
           id="path72" />
      </g>
      <g
         id="g73"
         transform="matrix(1.1494875,0,0,1.1494875,-63.904066,-60.9902)">
        <path
           style="opacity:1"
           fill="#626262"
           d="m 490.5,386.5 c 1.527,-0.073 2.527,0.594 3,2 -1.527,0.073 -2.527,-0.594 -3,-2 z"
           id="path73" />
      </g>
      <g
         id="g74"
         transform="matrix(1.1494875,0,0,1.1494875,-63.904066,-60.9902)">
        <path
           style="opacity:1"
           fill="#6c6c6c"
           d="m 566.5,386.5 c 3.551,1.611 6.551,3.944 9,7 -3.551,-1.611 -6.551,-3.944 -9,-7 z"
           id="path74" />
      </g>
      <g
         id="g75"
         transform="matrix(1.1494875,0,0,1.1494875,-63.904066,-60.9902)">
        <path
           style="opacity:1"
           fill="#616161"
           d="m 493.5,388.5 c 1.527,-0.073 2.527,0.594 3,2 -1.527,0.073 -2.527,-0.594 -3,-2 z"
           id="path75" />
      </g>
      <g
         id="g76"
         transform="matrix(1.1494875,0,0,1.1494875,-63.904066,-60.9902)">
        <path
           style="opacity:1"
           fill="#727272"
           d="m 176.5,388.5 c 3.391,1.029 6.057,3.029 8,6 -3.391,-1.029 -6.057,-3.029 -8,-6 z"
           id="path76" />
      </g>
      <g
         id="g77"
         transform="matrix(1.1494875,0,0,1.1494875,-63.904066,-60.9902)">
        <path
           style="opacity:1"
           fill="#777777"
           d="m 267.5,388.5 c -3.477,0.823 -7.144,1.323 -11,1.5 0.556,0.383 0.889,0.883 1,1.5 -1.527,0.073 -2.527,-0.594 -3,-2 4.134,-0.985 8.468,-1.318 13,-1 z"
           id="path77" />
      </g>
      <g
         id="g78"
         transform="matrix(1.1494875,0,0,1.1494875,-63.904066,-60.9902)">
        <path
           style="opacity:1"
           fill="#686868"
           d="m 496.5,390.5 c 2.698,0.345 4.698,1.678 6,4 -2.353,-0.84 -4.353,-2.174 -6,-4 z"
           id="path78" />
      </g>
      <g
         id="g79"
         transform="matrix(1.1494875,0,0,1.1494875,-63.904066,-60.9902)">
        <path
           style="opacity:1"
           fill="#6b6b6b"
           d="m 257.5,391.5 c 4.183,1.587 7.85,3.921 11,7 -4.183,-1.587 -7.85,-3.921 -11,-7 z"
           id="path79" />
      </g>
      <g
         id="g80"
         transform="matrix(1.1494875,0,0,1.1494875,-63.904066,-60.9902)">
        <path
           style="opacity:1"
           fill="#6b6b6b"
           d="m 184.5,394.5 c 2.87,0.933 5.204,2.6 7,5 -2.87,-0.933 -5.204,-2.6 -7,-5 z"
           id="path80" />
      </g>
      <g
         id="g81"
         transform="matrix(1.1494875,0,0,1.1494875,-63.904066,-60.9902)">
        <path
           style="opacity:1"
           fill="#656565"
           d="m 420.5,394.5 c 2.174,0.25 3.841,1.25 5,3 -2.174,-0.25 -3.841,-1.25 -5,-3 z"
           id="path81" />
      </g>
      <g
         id="g82"
         transform="matrix(1.1494875,0,0,1.1494875,-63.904066,-60.9902)">
        <path
           style="opacity:1"
           fill="#6b6b6b"
           d="m 575.5,393.5 c 2.249,0.58 3.915,1.913 5,4 -2.249,-0.58 -3.915,-1.913 -5,-4 z"
           id="path82" />
      </g>
      <g
         id="g83"
         transform="matrix(1.1494875,0,0,1.1494875,-63.904066,-60.9902)">
        <path
           style="opacity:1"
           fill="#6d6d6d"
           d="m 580.5,397.5 c 2.249,0.58 3.915,1.913 5,4 -2.249,-0.58 -3.915,-1.913 -5,-4 z"
           id="path83" />
      </g>
      <g
         id="g84"
         transform="matrix(1.1494875,0,0,1.1494875,-63.904066,-60.9902)">
        <path
           style="opacity:1"
           fill="#6b6b6b"
           d="m 191.5,399.5 c 2.87,0.933 5.204,2.6 7,5 -2.87,-0.933 -5.204,-2.6 -7,-5 z"
           id="path84" />
      </g>
      <g
         id="g85"
         transform="matrix(1.1494875,0,0,1.1494875,-63.904066,-60.9902)">
        <path
           style="opacity:1"
           fill="#6b6b6b"
           d="m 502.5,394.5 c 4.865,2.263 9.198,5.263 13,9 -4.865,-2.263 -9.198,-5.263 -13,-9 z"
           id="path85" />
      </g>
      <g
         id="g86"
         transform="matrix(1.1494875,0,0,1.1494875,-63.904066,-60.9902)">
        <path
           style="opacity:1"
           fill="#6d6d6d"
           d="m 268.5,398.5 c 7.511,3.585 14.511,7.918 21,13 -2.093,-0.545 -4.093,-1.378 -6,-2.5 -5.416,-3.03 -10.416,-6.53 -15,-10.5 z"
           id="path86" />
      </g>
      <g
         id="g87"
         transform="matrix(1.1494875,0,0,1.1494875,-63.904066,-60.9902)">
        <path
           style="opacity:1"
           fill="#6b6b6b"
           d="m 585.5,401.5 c 2.589,0.919 4.589,2.586 6,5 -2.589,-0.919 -4.589,-2.586 -6,-5 z"
           id="path87" />
      </g>
      <g
         id="g88"
         transform="matrix(1.1494875,0,0,1.1494875,-63.904066,-60.9902)">
        <path
           style="opacity:1"
           fill="#6a6a6a"
           d="m 198.5,404.5 c 2.87,0.933 5.204,2.6 7,5 -2.87,-0.933 -5.204,-2.6 -7,-5 z"
           id="path88" />
      </g>
      <g
         id="g89"
         transform="matrix(1.1494875,0,0,1.1494875,-63.904066,-60.9902)">
        <path
           style="opacity:1"
           fill="#686868"
           d="m 515.5,403.5 c 2.87,0.933 5.204,2.6 7,5 -2.87,-0.933 -5.204,-2.6 -7,-5 z"
           id="path89" />
      </g>
      <g
         id="g91"
         transform="matrix(1.1494875,0,0,1.1494875,-63.904066,-60.9902)">
        <path
           style="opacity:1"
           fill="#6b6b6b"
           d="m 522.5,408.5 c 2.87,0.933 5.204,2.6 7,5 -2.87,-0.933 -5.204,-2.6 -7,-5 z"
           id="path91" />
      </g>
      <g
         id="g92"
         transform="matrix(1.1494875,0,0,1.1494875,-63.904066,-60.9902)">
        <path
           style="opacity:1"
           fill="#6e6e6e"
           d="m 591.5,406.5 c 5.891,3.219 10.891,7.552 15,13 -5.301,-3.966 -10.301,-8.3 -15,-13 z"
           id="path92" />
      </g>
      <g
         id="g93"
         transform="matrix(1.1494875,0,0,1.1494875,-63.904066,-60.9902)">
        <path
           style="opacity:1"
           fill="#646464"
           d="m 205.5,409.5 c 1.527,-0.073 2.527,0.594 3,2 -1.527,0.073 -2.527,-0.594 -3,-2 z"
           id="path93" />
      </g>
      <g
         id="g94"
         transform="matrix(1.1494875,0,0,1.1494875,-63.904066,-60.9902)">
        <path
           style="opacity:1"
           fill="#717171"
           d="m 367.5,405.5 c 4.82,1.574 9.153,3.907 13,7 -4.301,-1.566 -8.468,-3.566 -12.5,-6 -0.399,0.228 -0.565,0.562 -0.5,1 -1.333,-0.667 -1.333,-1.333 0,-2 z"
           id="path94" />
      </g>
      <g
         id="g95"
         transform="matrix(1.1494875,0,0,1.1494875,-63.904066,-60.9902)">
        <path
           style="opacity:1"
           fill="#6d6d6d"
           d="m 425.5,397.5 c 10.202,5.216 19.869,11.216 29,18 -10.178,-5.252 -19.845,-11.252 -29,-18 z"
           id="path95" />
      </g>
      <g
         id="g96"
         transform="matrix(1.1494875,0,0,1.1494875,-63.904066,-60.9902)">
        <path
           style="opacity:1"
           fill="#686868"
           d="m 454.5,415.5 c 1.527,-0.073 2.527,0.594 3,2 -1.527,0.073 -2.527,-0.594 -3,-2 z"
           id="path96" />
      </g>
      <g
         id="g97"
         transform="matrix(1.1494875,0,0,1.1494875,-63.904066,-60.9902)">
        <path
           style="opacity:1"
           fill="#212121"
           d="m 169.5,413.5 c 0.876,-0.131 1.543,0.202 2,1 5.413,10.494 11.079,20.827 17,31 10.533,5.763 20.866,11.763 31,18 -10.333,5.833 -20.667,11.667 -31,17.5 -5.621,10.744 -11.621,21.244 -18,31.5 -5.833,-10.333 -11.667,-20.667 -17.5,-31 -10.629,-5.8 -21.129,-11.8 -31.5,-18 10.22,-6.364 20.72,-12.364 31.5,-18 5.802,-10.606 11.302,-21.272 16.5,-32 z"
           id="path97" />
      </g>
      <g
         id="g98"
         transform="matrix(1.1494875,0,0,1.1494875,-63.904066,-60.9902)">
        <path
           style="opacity:1"
           fill="#6d6d6d"
           d="m 289.5,411.5 c 9.503,4.581 18.503,9.914 27,16 -9.527,-4.545 -18.527,-9.878 -27,-16 z"
           id="path98" />
      </g>
      <g
         id="g99"
         transform="matrix(1.1494875,0,0,1.1494875,-63.904066,-60.9902)">
        <path
           style="opacity:1"
           fill="#6e6e6e"
           d="m 529.5,413.5 c 7.238,4.238 13.904,9.238 20,15 -7.238,-4.238 -13.904,-9.238 -20,-15 z"
           id="path99" />
      </g>
      <g
         id="g100"
         transform="matrix(1.1494875,0,0,1.1494875,-63.904066,-60.9902)">
        <path
           style="opacity:1"
           fill="#6a6a6a"
           d="m 380.5,412.5 c 7.257,2.962 14.257,6.462 21,10.5 -7.504,-2.419 -14.504,-5.919 -21,-10.5 z"
           id="path100" />
      </g>
      <g
         id="g101"
         transform="matrix(1.1494875,0,0,1.1494875,-63.904066,-60.9902)">
        <path
           style="opacity:1"
           fill="#6b6b6b"
           d="m 208.5,411.5 c 11.524,6.592 22.524,13.925 33,22 -11.549,-6.556 -22.549,-13.89 -33,-22 z"
           id="path101" />
      </g>
      <g
         id="g102"
         transform="matrix(1.1494875,0,0,1.1494875,-63.904066,-60.9902)">
        <path
           style="opacity:1"
           fill="#767676"
           d="m 405.5,426.5 c 2.166,-1.129 4.166,-0.629 6,1.5 -2.189,0.322 -4.189,-0.178 -6,-1.5 z"
           id="path102" />
      </g>
      <g
         id="g103"
         transform="matrix(1.1494875,0,0,1.1494875,-63.904066,-60.9902)">
        <path
           style="opacity:1"
           fill="#707070"
           d="m 606.5,419.5 c 11.372,9.038 21.372,19.371 30,31 -10.021,-10.354 -20.021,-20.687 -30,-31 z"
           id="path103" />
      </g>
      <g
         id="g104"
         transform="matrix(1.1494875,0,0,1.1494875,-63.904066,-60.9902)">
        <path
           style="opacity:1"
           fill="#636363"
           d="m 241.5,433.5 c 1.527,-0.073 2.527,0.594 3,2 -1.527,0.073 -2.527,-0.594 -3,-2 z"
           id="path104" />
      </g>
      <g
         id="g105"
         transform="matrix(1.1494875,0,0,1.1494875,-63.904066,-60.9902)">
        <path
           style="opacity:1"
           fill="#727272"
           d="m 316.5,427.5 c 8.826,3.91 17.159,8.577 25,14 -4.056,-1.525 -8.056,-3.359 -12,-5.5 -4.74,-2.36 -9.074,-5.193 -13,-8.5 z"
           id="path105" />
      </g>
      <g
         id="g106"
         transform="matrix(1.1494875,0,0,1.1494875,-63.904066,-60.9902)">
        <path
           style="opacity:1"
           fill="#6c6c6c"
           d="m 442.5,443.5 c -9.238,-3.619 -18.238,-7.785 -27,-12.5 9.457,3.06 18.457,7.227 27,12.5 z"
           id="path106" />
      </g>
      <g
         id="g107"
         transform="matrix(1.1494875,0,0,1.1494875,-63.904066,-60.9902)">
        <path
           style="opacity:1"
           fill="#707070"
           d="m 244.5,435.5 c 12.342,6.835 24.342,14.168 36,22 -12.675,-6.333 -24.675,-13.666 -36,-22 z"
           id="path107" />
      </g>
      <g
         id="g108"
         transform="matrix(1.1494875,0,0,1.1494875,-63.904066,-60.9902)">
        <path
           style="opacity:1"
           fill="#727272"
           d="m 341.5,441.5 c 3.008,0.92 5.841,2.254 8.5,4 0.464,-0.594 0.631,-1.261 0.5,-2 1.333,1 1.333,2 0,3 -3.492,-0.91 -6.492,-2.576 -9,-5 z"
           id="path108" />
      </g>
      <g
         id="g109"
         transform="matrix(1.1494875,0,0,1.1494875,-63.904066,-60.9902)">
        <path
           style="opacity:1"
           fill="#6c6c6c"
           d="m 442.5,443.5 c 7.651,2.767 14.984,6.1 22,10 -7.898,-2.286 -15.232,-5.619 -22,-10 z"
           id="path109" />
      </g>
      <g
         id="g110"
         transform="matrix(1.1494875,0,0,1.1494875,-63.904066,-60.9902)">
        <path
           style="opacity:1"
           fill="#6e6e6e"
           d="m 457.5,417.5 c 20.386,11.855 39.719,25.189 58,40 -19.342,-13.336 -38.675,-26.67 -58,-40 z"
           id="path110" />
      </g>
      <g
         id="g111"
         transform="matrix(1.1494875,0,0,1.1494875,-63.904066,-60.9902)">
        <path
           style="opacity:1"
           fill="#707070"
           d="m 549.5,428.5 c 12.882,8.876 24.882,18.876 36,30 -12.298,-9.63 -24.298,-19.63 -36,-30 z"
           id="path111" />
      </g>
      <g
         id="g112"
         transform="matrix(1.1494875,0,0,1.1494875,-63.904066,-60.9902)">
        <path
           style="opacity:1"
           fill="#646464"
           d="m 280.5,457.5 c 2.174,0.25 3.841,1.25 5,3 -2.174,-0.25 -3.841,-1.25 -5,-3 z"
           id="path112" />
      </g>
      <g
         id="g113"
         transform="matrix(1.1494875,0,0,1.1494875,-63.904066,-60.9902)">
        <path
           style="opacity:1"
           fill="#6a6a6a"
           d="m 464.5,453.5 c 7.406,2.207 14.406,5.207 21,9 -7.406,-2.207 -14.406,-5.207 -21,-9 z"
           id="path113" />
      </g>
      <g
         id="g114"
         transform="matrix(1.1494875,0,0,1.1494875,-63.904066,-60.9902)">
        <path
           style="opacity:1"
           fill="#6d6d6d"
           d="m 285.5,460.5 c 7.496,3.245 14.496,7.245 21,12 -7.496,-3.245 -14.496,-7.245 -21,-12 z"
           id="path114" />
      </g>
      <g
         id="g115"
         transform="matrix(1.1494875,0,0,1.1494875,-63.904066,-60.9902)">
        <path
           style="opacity:1"
           fill="#6b6b6b"
           d="m 585.5,458.5 c 0.739,-0.131 1.406,0.036 2,0.5 7.927,7.422 15.26,15.255 22,23.5 -8.333,-7.667 -16.333,-15.667 -24,-24 z"
           id="path115" />
      </g>
      <g
         id="g116"
         transform="matrix(1.1494875,0,0,1.1494875,-63.904066,-60.9902)">
        <path
           style="opacity:1"
           fill="#696969"
           d="m 485.5,462.5 c 8.716,2.568 17.049,5.901 25,10 -8.728,-2.537 -17.062,-5.871 -25,-10 z"
           id="path116" />
      </g>
      <g
         id="g117"
         transform="matrix(1.1494875,0,0,1.1494875,-63.904066,-60.9902)">
        <path
           style="opacity:1"
           fill="#727272"
           d="m 515.5,457.5 c 3.278,1.309 6.278,3.142 9,5.5 4.527,3.699 8.861,7.532 13,11.5 -7.91,-4.908 -15.243,-10.575 -22,-17 z"
           id="path117" />
      </g>
      <g
         id="g118"
         transform="matrix(1.1494875,0,0,1.1494875,-63.904066,-60.9902)">
        <path
           style="opacity:1"
           fill="#6c6c6c"
           d="m 387.5,466.5 c 0,-0.333 0,-0.667 0,-1 8.984,3.825 17.651,8.159 26,13 -8.9,-3.449 -17.567,-7.449 -26,-12 z"
           id="path118" />
      </g>
      <g
         id="g119"
         transform="matrix(1.1494875,0,0,1.1494875,-63.904066,-60.9902)">
        <path
           style="opacity:1"
           fill="#696969"
           d="m 306.5,472.5 c 2.831,0.579 5.164,1.912 7,4 -2.831,-0.579 -5.164,-1.912 -7,-4 z"
           id="path119" />
      </g>
      <g
         id="g120"
         transform="matrix(1.1494875,0,0,1.1494875,-63.904066,-60.9902)">
        <path
           style="opacity:1"
           fill="#6b6b6b"
           d="m 537.5,474.5 c 2.249,0.58 3.915,1.913 5,4 -2.249,-0.58 -3.915,-1.913 -5,-4 z"
           id="path120" />
      </g>
      <g
         id="g121"
         transform="matrix(1.1494875,0,0,1.1494875,-63.904066,-60.9902)">
        <path
           style="opacity:1"
           fill="#6b6b6b"
           d="m 313.5,476.5 c 3.492,0.91 6.492,2.576 9,5 -3.492,-0.91 -6.492,-2.576 -9,-5 z"
           id="path121" />
      </g>
      <g
         id="g122"
         transform="matrix(1.1494875,0,0,1.1494875,-63.904066,-60.9902)">
        <path
           style="opacity:1"
           fill="#6a6a6a"
           d="m 413.5,478.5 c 5.419,1.544 10.419,3.878 15,7 -5.419,-1.544 -10.419,-3.878 -15,-7 z"
           id="path122" />
      </g>
      <g
         id="g123"
         transform="matrix(1.1494875,0,0,1.1494875,-63.904066,-60.9902)">
        <path
           style="opacity:1"
           fill="#6c6c6c"
           d="m 322.5,481.5 c 4.82,1.574 9.153,3.907 13,7 -4.82,-1.574 -9.153,-3.907 -13,-7 z"
           id="path123" />
      </g>
      <g
         id="g124"
         transform="matrix(1.1494875,0,0,1.1494875,-63.904066,-60.9902)">
        <path
           style="opacity:1"
           fill="#6c6c6c"
           d="m 428.5,485.5 c 9.411,3.208 18.411,7.208 27,12 -9.411,-3.208 -18.411,-7.208 -27,-12 z"
           id="path124" />
      </g>
      <g
         id="g126"
         transform="matrix(1.1494875,0,0,1.1494875,-63.904066,-60.9902)">
        <path
           style="opacity:1"
           fill="#6e6e6e"
           d="m 335.5,488.5 c 8.813,3.572 17.146,7.905 25,13 -8.77,-3.551 -17.104,-7.885 -25,-13 z"
           id="path126" />
      </g>
      <g
         id="g127"
         transform="matrix(1.1494875,0,0,1.1494875,-63.904066,-60.9902)">
        <path
           style="opacity:1"
           fill="#6d6d6d"
           d="m 636.5,450.5 c 10.396,9.792 16.23,21.792 17.5,36 -0.948,6.948 -4.781,11.448 -11.5,13.5 -6.079,0.477 -11.746,1.644 -17,3.5 -0.789,-0.283 -1.456,-0.783 -2,-1.5 -21.822,-0.744 -42.822,-4.91 -63,-12.5 12.576,3.143 25.242,5.977 38,8.5 7.948,1.55 15.948,2.217 24,2 -4.575,-5.729 -8.908,-11.563 -13,-17.5 5.346,4.973 10.012,10.64 14,17 5.022,1.166 10.022,0.999 15,-0.5 11.936,-2.356 16.436,-9.522 13.5,-21.5 -4.165,-9.675 -9.332,-18.675 -15.5,-27 z"
           id="path127" />
      </g>
      <g
         id="g128"
         transform="matrix(1.1494875,0,0,1.1494875,-63.904066,-60.9902)">
        <path
           style="opacity:1"
           fill="#696969"
           d="m 455.5,497.5 c 4.389,0.903 8.389,2.569 12,5 -4.389,-0.903 -8.389,-2.569 -12,-5 z"
           id="path128" />
      </g>
      <g
         id="g129"
         transform="matrix(1.1494875,0,0,1.1494875,-63.904066,-60.9902)">
        <path
           style="opacity:1"
           fill="#666666"
           d="m 360.5,501.5 c 3.651,1.159 6.985,2.826 10,5 -3.92,-0.627 -7.253,-2.293 -10,-5 z"
           id="path129" />
      </g>
      <g
         id="g130"
         transform="matrix(1.1494875,0,0,1.1494875,-63.904066,-60.9902)">
        <path
           style="opacity:1"
           fill="#6a6a6a"
           d="m 510.5,472.5 c 11.91,3.692 23.743,7.692 35.5,12 0.5,-0.167 1,-0.333 1.5,-0.5 -1.873,-1.704 -3.54,-3.537 -5,-5.5 3.968,2.332 7.634,5.165 11,8.5 2.604,0.39 4.938,1.224 7,2.5 -1.052,-0.149 -2.052,0.017 -3,0.5 11.559,10.058 22.226,20.892 32,32.5 -11.495,-11.327 -23.161,-22.494 -35,-33.5 -15.037,-4.841 -29.704,-10.341 -44,-16.5 z"
           id="path130" />
      </g>
      <g
         id="g131"
         transform="matrix(1.1494875,0,0,1.1494875,-63.904066,-60.9902)">
        <path
           style="opacity:1"
           fill="#5d5d5d"
           d="m 370.5,506.5 c 1.653,0.16 2.986,0.826 4,2 -1.88,0.271 -3.213,-0.396 -4,-2 z"
           id="path131" />
      </g>
      <g
         id="g132"
         transform="matrix(1.1494875,0,0,1.1494875,-63.904066,-60.9902)">
        <path
           style="opacity:1"
           fill="#6b6b6b"
           d="m 374.5,508.5 c 3.045,0.779 5.711,2.113 8,4 -3.254,-0.294 -5.921,-1.627 -8,-4 z"
           id="path132" />
      </g>
      <g
         id="g133"
         transform="matrix(1.1494875,0,0,1.1494875,-63.904066,-60.9902)">
        <path
           style="opacity:1"
           fill="#707070"
           d="m 382.5,512.5 c 6.708,2.187 13.041,5.187 19,9 -6.755,-2.212 -13.088,-5.212 -19,-9 z"
           id="path133" />
      </g>
      <g
         id="g134"
         transform="matrix(1.1494875,0,0,1.1494875,-63.904066,-60.9902)">
        <path
           style="opacity:1"
           fill="#6f6f6f"
           d="m 401.5,521.5 c 10.079,3.542 19.746,7.876 29,13 -10.15,-3.378 -19.817,-7.711 -29,-13 z"
           id="path134" />
      </g>
      <g
         id="g135"
         transform="matrix(1.1494875,0,0,1.1494875,-63.904066,-60.9902)">
        <path
           style="opacity:1"
           fill="#baff6a"
           d="m 495.5,529.5 c 5.976,-1.276 10.809,0.39 14.5,5 2.732,6.059 1.232,10.892 -4.5,14.5 -11.446,1.887 -16.28,-2.946 -14.5,-14.5 1.707,-1.537 3.207,-3.204 4.5,-5 z"
           id="path135" />
      </g>
      <g
         id="g136"
         transform="matrix(1.1494875,0,0,1.1494875,-63.904066,-60.9902)">
        <path
           style="opacity:1"
           fill="#232323"
           d="m 367.5,532.5 c 5.531,1.475 11.031,3.142 16.5,5 5.528,-1.565 11.028,-3.231 16.5,-5 0.667,0.333 1.333,0.667 2,1 -2.284,5.135 -3.951,10.469 -5,16 1.371,5.746 3.038,11.412 5,17 -6.045,-0.34 -12.045,-1.673 -18,-4 -5.461,1.265 -10.794,2.931 -16,5 -0.333,-0.5 -0.667,-1 -1,-1.5 1.344,-5.359 2.678,-10.693 4,-16 -0.823,-5.964 -2.156,-11.797 -4,-17.5 z"
           id="path136" />
      </g>
      <g
         id="g137"
         transform="matrix(1.1494875,0,0,1.1494875,-63.904066,-60.9902)">
        <path
           style="opacity:1"
           fill="#6c6c6c"
           d="m 430.5,534.5 c 8.308,2.764 16.308,6.098 24,10 -8.47,-2.374 -16.47,-5.707 -24,-10 z"
           id="path137" />
      </g>
      <g
         id="g138"
         transform="matrix(1.1494875,0,0,1.1494875,-63.904066,-60.9902)">
        <path
           style="opacity:1"
           fill="#6d6d6d"
           d="m 467.5,502.5 c 19.871,7.431 39.871,14.598 60,21.5 24.012,8.469 48.679,13.469 74,15 -4.243,-5.397 -8.243,-10.897 -12,-16.5 5.037,4.71 9.371,10.043 13,16 27.992,1.683 35.658,-9.984 23,-35 5.911,7.253 8.078,15.586 6.5,25 -0.883,2.602 -2.383,4.769 -4.5,6.5 -7.228,3.687 -14.894,5.853 -23,6.5 0.627,0.917 0.961,1.917 1,3 -1.337,-0.815 -2.337,-1.982 -3,-3.5 -10.735,-0.772 -21.402,-2.105 -32,-4 -35.554,-8.24 -69.887,-19.74 -103,-34.5 z"
           id="path138" />
      </g>
      <g
         id="g139"
         transform="matrix(1.1494875,0,0,1.1494875,-63.904066,-60.9902)">
        <path
           style="opacity:1"
           fill="#696969"
           d="m 454.5,544.5 c 2.053,-0.098 3.72,0.569 5,2 -2.053,0.098 -3.72,-0.569 -5,-2 z"
           id="path139" />
      </g>
      <g
         id="g140"
         transform="matrix(1.1494875,0,0,1.1494875,-63.904066,-60.9902)">
        <path
           style="opacity:1"
           fill="#6b6b6b"
           d="m 605.5,544.5 c 3.064,3.324 4.897,7.324 5.5,12 0.805,3.196 0.638,6.196 -0.5,9 -0.225,-7.342 -1.892,-14.342 -5,-21 z"
           id="path140" />
      </g>
      <g
         id="g141"
         transform="matrix(1.1494875,0,0,1.1494875,-63.904066,-60.9902)">
        <path
           style="opacity:1"
           fill="#6f6f6f"
           d="m 459.5,546.5 c 26.434,9.701 53.101,18.368 80,26 -27.739,-5.692 -54.406,-14.358 -80,-26 z"
           id="path141" />
      </g>
      <g
         id="g142"
         transform="matrix(1.1494875,0,0,1.1494875,-63.904066,-60.9902)">
        <path
           style="opacity:1"
           fill="#7b7b7b"
           d="m 610.5,565.5 c -1.381,5.884 -5.047,9.717 -11,11.5 -20.501,3.847 -40.501,2.347 -60,-4.5 9.267,1.815 18.6,3.315 28,4.5 8.667,0.667 17.333,0.667 26,0 7.813,-0.89 13.479,-4.723 17,-11.5 z"
           id="path142" />
      </g>
    </g>
  </g>
</svg>
