<?xml version="1.0" encoding="UTF-8" standalone="no"?>
<!-- Uploaded to: SVG Repo, www.svgrepo.com, Generator: SVG Repo Mixer Tools -->

<svg
   width="799.95782"
   height="231.95781"
   viewBox="0 -181.5 511.97301 148.453"
   version="1.1"
   preserveAspectRatio="xMidYMid"
   id="svg7"
   xmlns="http://www.w3.org/2000/svg"
   xmlns:svg="http://www.w3.org/2000/svg">
  <defs
     id="defs7" />
  <g
     id="g7"
     transform="translate(-0.06,-181.50198)">
    <path
       d="M 0.06,27.679 H 17.912 V 67.341 H 55.563 V 27.679 h 17.875 v 97.358 H 55.563 V 84.542 H 17.912 v 40.495 H 0.06 Z"
       fill="#45535E"
       id="path1"
       style="fill:#4c4c4c;fill-opacity:1" />
    <path
       d="m 129.993,93.326 c 0,8.15 -6.64,14.782 -14.788,14.782 -8.151,0 -14.787,-6.632 -14.787,-14.782 V 51.41 h -16.93 v 41.916 c 0,17.487 14.229,31.711 31.717,31.711 17.484,0 31.712,-14.224 31.712,-31.711 V 51.41 h -16.924 v 41.916"
       fill="#45535E"
       id="path2"
       style="fill:#4c4c4c;fill-opacity:1" />
    <path
       d="m 194.179,51.901 c -8.398,0 -14.26,2.437 -19.921,7.994 V 27.679 h -16.985 v 59.705 c 0,22.348 16.158,37.653 34.311,37.653 20.181,0 37.863,-15.578 37.863,-36.567 0,-20.723 -16.305,-36.569 -35.268,-36.569 z m 0.422,57.423 c -11.509,0 -20.31,-9.612 -20.31,-20.854 0,-11.244 8.801,-20.859 20.31,-20.859 9.752,0 18.558,9.615 18.558,20.859 0,11.242 -8.806,20.854 -18.558,20.854 z"
       fill="#45535E"
       id="path3"
       style="fill:#4c4c4c;fill-opacity:1" />
    <path
       d="m 257.974,56.18 c 0,-8.538 5.689,-11.245 11.917,-11.245 5.014,0 11.649,3.792 15.979,8.398 l 11.103,-13.001 c -5.549,-7.448 -16.788,-12.596 -25.998,-12.596 -18.421,0 -31.694,10.7 -31.694,28.444 0,32.91 40.497,22.478 40.497,40.902 0,5.682 -5.551,10.698 -11.913,10.698 -10.026,0 -13.278,-4.876 -17.881,-10.024 l -12.327,12.729 c 7.86,9.617 17.608,14.495 29.257,14.495 17.47,0 31.556,-10.835 31.556,-27.767 0,-36.566 -40.496,-25.188 -40.496,-41.033"
       fill="#45535E"
       id="path4"
       style="fill:#4c4c4c;fill-opacity:1" />
    <path
       d="m 343.184,50.947 c -18.151,0 -34.311,15.296 -34.311,37.649 v 59.859 h 16.984 v -32.369 c 5.662,5.553 11.521,7.994 19.922,7.994 18.962,0 35.269,-15.844 35.269,-36.567 0,-20.992 -17.687,-36.566 -37.864,-36.566 z m 3.018,57.425 c -11.508,0 -20.31,-9.625 -20.31,-20.859 0,-11.244 8.802,-20.859 20.31,-20.859 9.75,0 18.557,9.615 18.557,20.859 0,11.234 -8.807,20.859 -18.557,20.859 z"
       fill="#45535E"
       id="path5"
       style="fill:#4c4c4c;fill-opacity:1" />
    <path
       d="m 506.069,109.324 c -10.018,0 -12.862,-4.332 -12.862,-10.971 V 68.965 h 15.572 V 54.069 h -15.572 v -19.64 l -17.195,7.718 v 59.863 c 0,15.306 10.56,23.027 25.045,23.027 2.167,0 5.15,-0.14 6.777,-0.541 l 4.199,-15.438 c -1.896,0.131 -4.062,0.266 -5.964,0.266"
       fill="#45535E"
       id="path6"
       style="fill:#4c4c4c;fill-opacity:1" />
    <path
       d="M 461.278,69.831 C 458.022,64.229 453.442,59.738 447.716,56.357 443.437,53.866 439,52.285 434,51.606 v -17.8 c 5,-2.123 8.103,-6.822 8.103,-12.304 0,-7.472 -5.992,-13.527 -13.458,-13.527 -7.472,0 -13.569,6.055 -13.569,13.527 0,5.482 2.924,10.181 7.924,12.304 v 17.808 c -4,0.578 -8.148,1.825 -11.936,3.741 -7.737,-5.876 -33.107,-25.153 -47.948,-36.412 0.352,-1.269 0.623,-2.577 0.623,-3.957 0,-8.276 -6.702,-14.984 -14.981,-14.984 -8.279,0 -14.978,6.708 -14.978,14.984 0,8.275 6.706,14.985 14.985,14.985 2.824,0 5.436,-0.826 7.69,-2.184 l 3.132,2.376 43.036,31.008 c -2.275,2.089 -4.394,4.465 -6.089,7.131 C 393.099,73.737 391,79.717 391,86.24 v 1.361 c 0,4.579 0.87,8.902 2.352,12.963 1.305,3.546 3.213,6.77 5.576,9.685 l -14.283,14.318 c -1.267,-0.467 -2.598,-0.723 -3.987,-0.723 -3.092,0 -5.992,1.208 -8.179,3.391 -2.189,2.189 -3.388,5.096 -3.388,8.19 10e-4,3.093 1.206,6 3.394,8.187 2.187,2.188 5.094,3.394 8.188,3.394 3.094,0 6.002,-1.206 8.191,-3.394 2.184,-2.187 3.39,-5.095 3.39,-8.187 0,-1.197 -0.185,-2.365 -0.533,-3.475 l 14.763,-14.765 c 2.024,1.398 4.21,2.575 6.56,3.59 4.635,2.004 9.751,3.225 15.35,3.225 h 1.026 c 6.19,0 12.029,-1.454 17.518,-4.428 5.784,-3.143 10.311,-7.441 13.731,-12.928 C 464.107,101.142 466,95.063 466,88.375 v -0.334 c 0,-6.579 -1.523,-12.649 -4.722,-18.21 z m -18.038,30.973 c -4.007,4.453 -8.613,7.196 -13.82,7.196 h -0.858 c -2.974,0 -5.883,-0.822 -8.731,-2.317 -3.21,-1.646 -5.65,-3.994 -7.647,-6.967 C 410.12,95.798 409,92.612 409,89.234 v -1.026 c 0,-3.321 0.637,-6.47 2.243,-9.444 1.717,-3.251 4.036,-5.779 7.12,-7.789 3.028,-1.996 6.262,-2.975 9.864,-2.975 h 0.335 c 3.266,0 6.358,0.644 9.276,2.137 2.973,1.592 5.402,3.767 7.285,6.628 1.829,2.862 2.917,5.949 3.267,9.312 0.055,0.699 0.083,1.415 0.083,2.099 0,4.564 -1.744,8.791 -5.233,12.628 z"
       fill="#F8761F"
       id="path7"
       style="fill:#4c4c4c;fill-opacity:1" />
  </g>
</svg>
