<?xml version="1.0" encoding="UTF-8" standalone="no"?>
<!-- Generator: Adobe Illustrator 25.0.1, SVG Export Plug-In . SVG Version: 6.00 Build 0)  -->

<svg
   version="1.0"
   id="katman_1"
   x="0px"
   y="0px"
   viewBox="0 0 191187.48 28457.787"
   xml:space="preserve"
   sodipodi:docname="Notion.svg"
   width="191187.48"
   height="28457.787"
   xmlns:inkscape="http://www.inkscape.org/namespaces/inkscape"
   xmlns:sodipodi="http://sodipodi.sourceforge.net/DTD/sodipodi-0.dtd"
   xmlns="http://www.w3.org/2000/svg"
   xmlns:svg="http://www.w3.org/2000/svg"><defs
   id="defs2" /><sodipodi:namedview
   id="namedview2"
   pagecolor="#ffffff"
   bordercolor="#000000"
   borderopacity="0.25"
   inkscape:showpageshadow="2"
   inkscape:pageopacity="0.0"
   inkscape:pagecheckerboard="0"
   inkscape:deskcolor="#d1d1d1"><inkscape:page
     x="0"
     y="0"
     width="191187.48"
     height="28457.787"
     id="page2"
     margin="0"
     bleed="0" /></sodipodi:namedview>
<style
   type="text/css"
   id="style1">
	.st0{fill-rule:evenodd;clip-rule:evenodd;}
</style>
<path
   d="m -113869.32,-65691.6 v -39.7 h 0.7 l 28.6,39.7 h 9 v -58.3 h -10 v 39.6 h -0.7 l -28.6,-39.6 h -9 v 58.3 z m 66.6,0.9 c 13.2,0 21.3,-8.6 21.3,-23 0,-14.3 -8.1,-23 -21.3,-23 -13.1,0 -21.3,8.7 -21.3,23 0.1,14.4 8.1,23 21.3,23 z m 0,-8.4 c -7,0 -11,-5.3 -11,-14.6 0,-9.2 4,-14.6 11,-14.6 7,0 11,5.4 11,14.6 0,9.3 -4,14.6 -11,14.6 z m 30.4,-47.5 v 11.1 h -7 v 8 h 7 v 24.1 c 0,8.6 4,12 14.2,12 1.9,0 3.8,-0.2 5.3,-0.5 v -7.8 c -1.2,0.1 -2,0.2 -3.4,0.2 -4.2,0 -6.1,-1.9 -6.1,-6.3 v -21.7 h 9.5 v -8 h -9.5 v -11.1 z m 25.5,55 h 10 v -44.2 h -10 z m 5,-51.5 c 3.3,0 6,-2.7 6,-6 0,-3.4 -2.7,-6.1 -6,-6.1 -3.3,0 -6,2.7 -6,6.1 0,3.3 2.7,6 6,6 z m 32.4,52.4 c 13.2,0 21.3,-8.6 21.3,-23 0,-14.3 -8.1,-23 -21.3,-23 -13.1,0 -21.3,8.7 -21.3,23 0,14.4 8,23 21.3,23 z m 0,-8.4 c -7,0 -11,-5.3 -11,-14.6 0,-9.2 4,-14.6 11,-14.6 6.9,0 11,5.4 11,14.6 -0.1,9.3 -4.1,14.6 -11,14.6 z m 27.2,7.5 h 10 v -25.7 c 0,-6.5 3.8,-10.6 9.7,-10.6 6.1,0 8.9,3.4 8.9,10.1 v 26.2 h 10 v -28.6 c 0,-10.6 -5.4,-16.5 -15.2,-16.5 -6.6,0 -11,3 -13.1,8 h -0.7 v -7.1 h -9.7 c 0.1,0 0.1,44.2 0.1,44.2 z"
   id="path1"
   style="fill:#4c4c4c;fill-opacity:1"
   inkscape:export-filename="../DPI/Ahmed Khled Fathi_(ONL2_SWD2_S5)/CSS/CSS2/Assets/notion.svg"
   inkscape:export-xdpi="300"
   inkscape:export-ydpi="300" />
<g
   id="g2"
   transform="matrix(0.44628845,0,0,0.44628845,-114004.71,-65807.344)"
   style="fill:#4c4c4c;fill-opacity:1">
	<path
   class="st0"
   d="m 120,152.1 c 4.7,3.8 6.4,3.5 15.2,2.9 l 82.9,-5 c 1.8,0 0.3,-1.8 -0.3,-2 L 204,138.1 c -2.6,-2 -6.2,-4.4 -12.9,-3.8 l -80.2,5.9 c -2.9,0.3 -3.5,1.8 -2.3,2.9 z m 5,19.3 v 87.2 c 0,4.7 2.3,6.4 7.6,6.1 l 91.1,-5.3 c 5.3,-0.3 5.9,-3.5 5.9,-7.3 v -86.6 c 0,-3.8 -1.5,-5.9 -4.7,-5.6 l -95.2,5.6 c -3.5,0.3 -4.7,2.1 -4.7,5.9 z m 89.9,4.7 c 0.6,2.6 0,5.3 -2.6,5.6 l -4.4,0.9 V 247 c -3.8,2 -7.3,3.2 -10.3,3.2 -4.7,0 -5.9,-1.5 -9.4,-5.9 l -28.7,-45.1 v 43.6 l 9.1,2 c 0,0 0,5.3 -7.3,5.3 l -20.2,1.2 c -0.6,-1.2 0,-4.1 2,-4.7 l 5.3,-1.5 v -57.6 l -7.3,-0.6 c -0.6,-2.6 0.9,-6.4 5,-6.7 l 21.7,-1.5 29.9,45.6 V 184 l -7.6,-0.9 c -0.6,-3.2 1.8,-5.6 4.7,-5.9 z m -110.7,-43.9 83.5,-6.1 c 10.2,-0.9 12.9,-0.3 19.3,4.4 l 26.6,18.7 c 4.4,3.2 5.9,4.1 5.9,7.6 v 102.7 c 0,6.4 -2.3,10.2 -10.5,10.8 l -96.9,5.9 c -6.2,0.3 -9.1,-0.6 -12.3,-4.7 L 100.1,246 c -3.5,-4.7 -5,-8.2 -5,-12.3 v -91.3 c 0,-5.3 2.4,-9.6 9.1,-10.2 z"
   id="path2"
   style="fill:#4c4c4c;fill-opacity:1" />
</g>
</svg>
