<?xml version="1.0" encoding="UTF-8" standalone="no"?>
<svg
   id="svg"
   width="400"
   height="78.033142"
   viewBox="0 0 400 78.033142"
   version="1.1"
   xmlns="http://www.w3.org/2000/svg"
   xmlns:svg="http://www.w3.org/2000/svg">
  <defs
     id="defs1" />
  <g
     id="svgg"
     transform="matrix(1.323063,0,0,1.323063,-49.941976,-41.840639)">
    <path
       id="path0"
       d="m 37.893,31.976 c -0.188,0.304 -0.195,0.789 -0.016,1.079 0.276,0.447 2.169,6.634 3.842,12.561 0.257,0.909 0.682,2.395 0.946,3.304 0.264,0.908 0.703,2.452 0.977,3.431 0.273,0.978 0.97,3.385 1.55,5.348 l 1.053,3.57 -1.563,5.325 c -0.86,2.929 -1.774,6.068 -2.03,6.977 -0.257,0.908 -0.676,2.395 -0.933,3.303 -0.256,0.909 -1.189,4.054 -2.073,6.989 -2.012,6.685 -2.037,6.904 -0.764,6.693 1.352,-0.223 25.164,-7.035 26.903,-7.696 1.363,-0.519 3.838,0.114 25.702,6.573 2.655,0.785 4.997,1.273 5.204,1.085 0.206,-0.188 -0.784,-4.335 -2.201,-9.216 -1.417,-4.881 -3.292,-11.361 -4.167,-14.4 L 88.732,61.378 89.799,57.5 c 0.587,-2.133 2.464,-8.671 4.171,-14.529 3.133,-10.752 3.239,-11.898 1.025,-11.028 -0.672,0.264 -2.25,0.76 -3.508,1.103 -1.258,0.343 -3.66,1.028 -5.337,1.522 -1.677,0.494 -4.765,1.401 -6.862,2.015 -6.518,1.911 -7.335,2.162 -8.537,2.618 -1.965,0.746 -4.733,0.482 -9.252,-0.884 C 59.123,37.599 56.436,36.804 55.527,36.549 51.452,35.407 50.259,35.059 45.235,33.546 42.3,32.662 39.524,31.823 39.066,31.681 38.609,31.539 38.08,31.672 37.893,31.976 M 186.49,42.83 c -4.32,2.901 -0.945,9.271 3.85,7.268 1.09,-0.456 1.994,-1.288 2.314,-2.131 1.55,-4.076 -2.598,-7.532 -6.164,-5.137 m -51.98,0.25 c -0.131,0.212 -0.045,1.985 0.192,3.939 0.632,5.224 1.401,11.174 2.003,15.497 0.62,4.453 1.502,11.274 1.973,15.248 l 0.331,2.795 5.802,0.145 c 6.739,0.167 6.718,0.179 7.242,-4.083 0.215,-1.748 0.627,-4.836 0.916,-6.862 1.024,-7.186 1.548,-10.843 2.038,-14.232 0.272,-1.887 0.646,-4.526 0.83,-5.864 0.63,-4.579 1.772,-2.604 2.731,4.721 0.311,2.376 0.772,5.692 1.025,7.369 0.254,1.678 0.728,4.994 1.055,7.37 0.327,2.376 0.865,5.921 1.195,7.878 l 0.601,3.558 5.775,0.145 c 6.833,0.171 6.541,0.376 7.154,-5.022 0.267,-2.349 0.699,-5.873 0.961,-7.829 1.784,-13.353 2.475,-18.675 2.888,-22.237 l 0.338,-2.922 h -3.366 c -3.082,0 -3.386,0.096 -3.603,1.143 -0.216,1.05 -2.527,21.624 -3.196,28.463 -0.192,1.964 -0.51,2.922 -0.968,2.922 -0.759,0 -0.87,-0.433 -1.696,-6.607 -0.318,-2.376 -0.785,-5.693 -1.038,-7.37 -0.254,-1.677 -0.72,-4.993 -1.036,-7.37 -0.317,-2.376 -0.785,-5.279 -1.041,-6.451 -0.256,-1.172 -0.465,-2.723 -0.465,-3.446 v -1.316 l -6.213,0.143 -6.213,0.143 -0.314,2.033 c -0.173,1.118 -0.59,3.977 -0.927,6.353 -0.336,2.376 -0.816,5.693 -1.066,7.37 -0.25,1.677 -0.708,4.879 -1.019,7.116 -1.738,12.518 -2.455,12.846 -3.611,1.651 -0.252,-2.446 -0.682,-6.448 -0.955,-8.894 -0.273,-2.446 -0.738,-6.825 -1.033,-9.732 -0.295,-2.906 -0.657,-5.479 -0.804,-5.718 -0.332,-0.536 -6.157,-0.579 -6.486,-0.047 m 166.74,-0.07 c -0.198,0.199 -0.361,3.278 -0.361,6.842 0,7.276 -0.269,7.793 -2.882,5.524 -11.905,-10.336 -26.181,11.66 -14.82,22.836 4.099,4.033 11.991,4.351 15.368,0.62 1.324,-1.463 2.236,-1.34 2.428,0.329 0.155,1.352 0.261,1.398 3.21,1.398 h 3.05 V 61.753 42.948 l -2.816,-0.149 c -1.548,-0.082 -2.978,0.013 -3.177,0.211 m 13.362,2.724 v 3.059 h 8.865 c 4.875,0 8.986,0.196 9.134,0.437 0.351,0.566 -1.136,2.46 -8.85,11.279 -3.494,3.994 -7.106,8.128 -8.025,9.186 -1.651,1.9 -1.67,1.98 -1.525,6.394 l 0.147,4.47 h 12.707 12.706 l 0.153,-2.922 0.152,-2.923 -8.793,-0.008 c -4.836,-0.004 -9.093,-0.198 -9.46,-0.431 -0.789,-0.5 -1.017,-0.206 10.208,-13.132 l 8.035,-9.252 -0.148,-4.471 -0.147,-4.472 -12.579,-0.136 -12.58,-0.136 v 3.058 m -79.034,7.738 c -2.861,0.787 -5.709,2.697 -6.878,4.615 -1.424,2.335 -1.303,2.589 1.668,3.496 l 2.669,0.814 1.576,-1.818 c 3.107,-3.584 9.598,-2.242 9.249,1.911 l -0.152,1.805 -5.336,0.295 c -8.688,0.482 -11.692,2.639 -11.688,8.393 0.005,8.092 11.695,11.879 16.767,5.432 l 1.102,-1.402 1.447,1.773 c 1.396,1.711 1.57,1.773 4.914,1.773 h 3.468 v -2.536 c 0,-2.421 -0.07,-2.548 -1.525,-2.799 l -1.525,-0.263 -0.295,-7.112 c -0.326,-7.832 -0.955,-9.961 -3.601,-12.187 -2.507,-2.11 -8.278,-3.176 -11.86,-2.19 m -49.825,1.022 c -0.141,0.369 -0.195,6.384 -0.12,13.368 l 0.136,12.697 h 3.049 3.05 V 67.344 54.13 l -2.929,-0.153 c -2.069,-0.108 -3.004,0.044 -3.186,0.517 m 14.12,-0.287 c -0.969,0.399 -0.827,4.569 0.169,4.951 0.442,0.169 3.644,0.308 7.115,0.308 7.985,0 8.011,-0.174 -1.105,7.334 l -7.362,6.063 0.147,3.848 0.146,3.848 h 11.182 11.182 v -2.541 -2.542 l -7.535,-0.14 c -9.151,-0.171 -9.157,0.305 0.091,-7.433 l 7.23,-6.048 -0.147,-3.863 -0.147,-3.862 -10.166,-0.093 c -5.59,-0.05 -10.451,0.026 -10.8,0.17 m 60.086,0.287 c -0.141,0.369 -0.196,6.384 -0.121,13.368 l 0.137,12.697 h 3.049 3.05 l 0.284,-8.894 c 0.157,-4.892 0.328,-8.943 0.382,-9.001 2.002,-2.209 3.035,-2.689 5.786,-2.689 3.129,0 3.884,-1.038 3.376,-4.635 -0.29,-2.051 -4.831,-2.028 -7.181,0.035 -2.158,1.896 -2.285,1.903 -2.486,0.152 -0.185,-1.599 -5.709,-2.509 -6.276,-1.033 m 37.425,5.618 c 5.038,3.366 4.493,12.671 -0.874,14.914 -3.917,1.636 -7.854,0.268 -9.725,-3.38 -3.931,-7.667 3.797,-16.078 10.599,-11.534 m -53.42,10.931 c 0,4.537 -7.811,7.171 -10.284,3.468 -1.949,-2.919 0.492,-4.879 6.077,-4.879 h 4.207 v 1.411"
       stroke="none"
       fill="#000000"
       fill-rule="evenodd" />
  </g>
</svg>
