<?xml version="1.0" encoding="UTF-8" standalone="no"?>
<svg
   id="svg"
   width="302.41299"
   height="67.866066"
   viewBox="0 0 302.41299 67.866064"
   version="1.1"
   xmlns="http://www.w3.org/2000/svg"
   xmlns:svg="http://www.w3.org/2000/svg">
  <defs
     id="defs1" />
  <g
     id="svgg"
     transform="translate(-52.547002,-36.460999)">
    <path
       id="path0"
       d="m 52.547,40.119 c 0,7.81 3.764,9.211 24.747,9.211 9.982,0 18.148,0.367 18.148,0.815 0,0.448 -8.927,9.733 -19.839,20.632 -22.639,22.615 -23.784,24.764 -16.252,30.509 l 3.586,2.735 h 28.049 c 31.048,0 29.752,0.329 27.023,-6.849 -1.93,-5.074 -5.802,-6.019 -24.658,-6.019 -9.466,0 -17.212,-0.346 -17.212,-0.769 0,-0.422 8.928,-9.741 19.84,-20.707 20.395,-20.498 20.663,-20.881 18.65,-26.654 -2.148,-6.162 -4.262,-6.562 -34.683,-6.562 H 60.93656 52.547 v 3.658 m 88.472,-2.166 C 118.546,45.019 109.605,72.271 123.74,90.617 140.719,112.654 175,106.012 182.708,79.192 189.885,54.22 165.62,30.218 141.019,37.953 m 71.313,0.469 c -16.036,5.965 -22.988,15.589 -22.984,31.819 0.008,36.528 48.267,46.852 63.5,13.585 11.799,-25.769 -14.392,-55.12 -40.516,-45.404 m 48.258,31.819 v 33.78 h 2.453 c 1.35,0 4.124,-1.394 6.166,-3.097 l 3.713,-3.098 0.359,-19.652 c 0.446,-24.479 3.475,-30.123 15.315,-28.535 10.605,1.423 12.73,6.253 12.739,28.948 0.006,17.377 1.018,21.752 5.597,24.2 6.504,3.476 6.687,2.926 7.277,-21.835 0.648,-27.21 2.591,-31.614 13.941,-31.614 11.014,0 13.284,4.686 13.941,28.769 l 0.536,19.661 3.503,3.127 c 1.926,1.719 4.701,3.126 6.166,3.126 h 2.664 V 80.899 c 0,-22.565 -0.066,-23.263 -2.738,-28.909 -7.435,-15.718 -26.616,-20.078 -40.962,-9.311 l -3.485,2.616 -3.485,-2.602 c -8.357,-6.237 -17.404,-7.615 -26.835,-4.086 l -5.735,2.146 -4.441,-2.146 c -2.442,-1.18 -4.947,-2.146 -5.565,-2.146 -0.76,0 -1.124,10.937 -1.124,33.78"
       stroke="none"
       fill="#000000"
       fill-rule="evenodd"
       style="fill:#4c4c4c;fill-opacity:1" />
  </g>
</svg>
